<?xml version="1.0" standalone="yes"?>

<svg version="1.1" viewBox="0.0 0.0 1740.5564304461943 2120.6771653543306" fill="none" stroke="none" stroke-linecap="square" stroke-miterlimit="10" xmlns="http://www.w3.org/2000/svg" xmlns:xlink="http://www.w3.org/1999/xlink"><clipPath id="p.0"><path d="m0 0l1740.5564 0l0 2120.6772l-1740.5564 0l0 -2120.6772z" clip-rule="nonzero"></path></clipPath><g clip-path="url(#p.0)"><path fill="#000000" fill-opacity="0.0" d="m0 0l1740.5564 0l0 2120.6772l-1740.5564 0z" fill-rule="nonzero"></path><path fill="#626250" d="m112.29804 752.7737l0 0c0 -139.54309 113.12203 -252.6651 252.66513 -252.6651l1010.6301 0l0 0c67.01099 0 131.27734 26.619995 178.66125 74.00391c47.38391 47.38391 74.00391 111.65027 74.00391 178.6612l0 1038.22c0 139.54309 -113.12207 252.66504 -252.66516 252.66504l-1010.6301 0c-139.54309 0 -252.66513 -113.12195 -252.66513 -252.66504z" fill-rule="nonzero"></path><path stroke="#626250" stroke-width="3.0" stroke-linejoin="round" stroke-linecap="butt" d="m112.29804 752.7737l0 0c0 -139.54309 113.12203 -252.6651 252.66513 -252.6651l1010.6301 0l0 0c67.01099 0 131.27734 26.619995 178.66125 74.00391c47.38391 47.38391 74.00391 111.65027 74.00391 178.6612l0 1038.22c0 139.54309 -113.12207 252.66504 -252.66516 252.66504l-1010.6301 0c-139.54309 0 -252.66513 -113.12195 -252.66513 -252.66504z" fill-rule="nonzero"></path><path fill="#66c5e4" d="m712.57404 1156.4741l315.39972 0l0 230.81018l-315.39972 0z" fill-rule="nonzero"></path><path stroke="#ffffff" stroke-width="3.0" stroke-linejoin="round" stroke-linecap="butt" d="m712.57404 1156.4741l315.39972 0l0 230.81018l-315.39972 0z" fill-rule="nonzero"></path><path fill="#626250" d="m780.5786 1287.3811l1.71875 -4.3125q1.3125 0.96875 3.265625 1.609375q1.953125 0.640625 3.5 0.640625q2.75 0 4.40625 -1.5q1.671875 -1.5 1.671875 -3.8125q0 -1.734375 -0.9375 -3.21875q-0.921875 -1.5 -4.640625 -3.25l-2.765625 -1.296875q-3.515625 -1.640625 -4.921875 -3.890625q-1.390625 -2.25 -1.390625 -5.40625q0 -3.84375 2.71875 -6.375q2.71875 -2.53125 6.984375 -2.53125q5.703125 0 7.921875 1.84375l-1.375 4.078125q-0.9375 -0.671875 -2.859375 -1.296875q-1.921875 -0.640625 -3.5625 -0.640625q-2.390625 0 -3.765625 1.359375q-1.375 1.359375 -1.375 3.484375q0 1.3125 0.484375 2.390625q0.5 1.078125 1.375 1.8125q0.890625 0.71875 3.609375 2.03125l2.8125 1.34375q3.515625 1.65625 4.921875 3.96875q1.421875 2.3125 1.421875 5.875q0 3.859375 -3.109375 6.5625q-3.09375 2.703125 -8.296875 2.703125q-4.578125 0 -7.8125 -2.171875zm33.335938 2.046875l-1.171875 0l-10.765625 -25.640625l4.875 0l6.640625 17.578125l6.765625 -17.578125l4.671875 0l-11.015625 25.640625zm28.632812 -3.359375q-2.671875 3.359375 -8.171875 3.359375q-2.953125 0 -5.125 -2.140625q-2.171875 -2.15625 -2.171875 -5.34375q0 -3.8125 3.34375 -6.453125q3.34375 -2.640625 8.515625 -2.640625q1.40625 0 3.1875 0.609375q0 -6.09375 -5.4375 -6.09375q-4.171875 0 -6.421875 2.25l-1.875 -3.71875q1.265625 -1.03125 3.5 -1.765625q2.25 -0.75 4.28125 -0.75q5.46875 0 7.9375 2.484375q2.46875 2.484375 2.46875 7.90625l0 9.0q0 3.296875 1.96875 4.40625l0 2.234375q-2.71875 0 -4.0625 -0.78125q-1.34375 -0.78125 -1.9375 -2.5625zm-0.421875 -9.4375q-2.109375 -0.46875 -2.953125 -0.46875q-3.375 0 -5.515625 1.734375q-2.125 1.734375 -2.125 4.09375q0 3.921875 4.625 3.921875q3.375 0 5.96875 -3.21875l0 -6.0625zm11.8125 5.21875l0 -28.28125l4.453125 0l0 27.53125q0 2.015625 1.15625 3.1875q1.171875 1.15625 3.046875 1.15625l0 3.984375q-8.65625 0 -8.65625 -7.578125zm17.609375 5.296875l-1.578125 2.28125l-2.21875 0l0 -35.859375l4.453125 0l0 12.140625q0.625 -0.875 2.375 -1.59375q1.75 -0.734375 3.4375 -0.734375q5.15625 0 8.34375 3.5625q3.203125 3.5625 3.203125 9.0q0 6.28125 -3.21875 9.890625q-3.203125 3.59375 -8.6875 3.59375q-1.78125 0 -3.5 -0.671875q-1.71875 -0.671875 -2.609375 -1.609375zm0.65625 -18.046875l0 14.484375q0 0.375 1.65625 1.234375q1.671875 0.859375 2.53125 0.859375q4.546875 0 6.515625 -2.171875q1.96875 -2.1875 1.96875 -7.328125q0 -4.265625 -2.296875 -6.65625q-2.296875 -2.390625 -6.1875 -2.390625q-0.8125 0 -2.28125 0.703125q-1.46875 0.703125 -1.90625 1.265625zm36.460938 16.96875q-2.671875 3.359375 -8.171875 3.359375q-2.953125 0 -5.125 -2.140625q-2.171875 -2.15625 -2.171875 -5.34375q0 -3.8125 3.34375 -6.453125q3.34375 -2.640625 8.515625 -2.640625q1.40625 0 3.1875 0.609375q0 -6.09375 -5.4375 -6.09375q-4.171875 0 -6.421875 2.25l-1.875 -3.71875q1.265625 -1.03125 3.5 -1.765625q2.25 -0.75 4.28125 -0.75q5.46875 0 7.9375 2.484375q2.46875 2.484375 2.46875 7.90625l0 9.0q0 3.296875 1.96875 4.40625l0 2.234375q-2.71875 0 -4.0625 -0.78125q-1.34375 -0.78125 -1.9375 -2.5625zm-0.421875 -9.4375q-2.109375 -0.46875 -2.953125 -0.46875q-3.375 0 -5.515625 1.734375q-2.125 1.734375 -2.125 4.09375q0 3.921875 4.625 3.921875q3.375 0 5.96875 -3.21875l0 -6.0625zm25.109375 -8.484375q-1.453125 -1.015625 -2.9375 -1.015625q-2.359375 0 -4.140625 2.1875q-1.765625 2.171875 -1.765625 5.25l0 14.390625l-4.453125 0l0 -25.109375l4.453125 0l0 4.015625q2.4375 -4.484375 7.25 -4.484375q1.1875 0 3.4375 0.421875l-1.84375 4.34375zm20.921875 20.78125l0 -1.84375q-2.3125 2.328125 -6.75 2.328125q-4.703125 0 -7.640625 -3.375q-2.921875 -3.390625 -2.921875 -9.015625q0 -5.640625 3.375 -9.640625q3.375 -4.0 8.03125 -4.0q3.890625 0 5.90625 1.828125l0 -11.640625l4.453125 0l0 35.359375l-4.453125 0zm0 -19.265625q-1.6875 -2.53125 -4.609375 -2.53125q-3.59375 0 -5.8125 2.671875q-2.203125 2.671875 -2.203125 6.796875q0 9.078125 8.25 9.078125q1.046875 0 2.515625 -0.671875q1.484375 -0.671875 1.859375 -1.421875l0 -13.921875z" fill-rule="nonzero"></path><path fill="#66c5e4" d="m1227.1263 1271.8704l315.39978 0l0 230.8103l-315.39978 0z" fill-rule="nonzero"></path><path stroke="#ffffff" stroke-width="3.0" stroke-linejoin="round" stroke-linecap="butt" d="m1227.1263 1271.8704l315.39978 0l0 230.8103l-315.39978 0z" fill-rule="nonzero"></path><path fill="#626250" d="m1293.3615 1402.7773l1.71875 -4.3125q1.3125 0.96875 3.265625 1.609375q1.953125 0.640625 3.5 0.640625q2.75 0 4.40625 -1.5q1.671875 -1.5 1.671875 -3.8125q0 -1.734375 -0.9375 -3.21875q-0.921875 -1.5 -4.640625 -3.25l-2.765625 -1.296875q-3.515625 -1.640625 -4.921875 -3.890625q-1.390625 -2.25 -1.390625 -5.40625q0 -3.84375 2.71875 -6.375q2.71875 -2.53125 6.984375 -2.53125q5.703125 0 7.921875 1.84375l-1.375 4.078125q-0.9375 -0.671875 -2.859375 -1.296875q-1.921875 -0.640625 -3.5625 -0.640625q-2.390625 0 -3.765625 1.359375q-1.375 1.359375 -1.375 3.484375q0 1.3125 0.484375 2.390625q0.5 1.078125 1.375 1.8125q0.890625 0.71875 3.609375 2.03125l2.8125 1.34375q3.515625 1.65625 4.921875 3.96875q1.421875 2.3125 1.421875 5.875q0 3.859375 -3.109375 6.5625q-3.09375 2.703125 -8.296875 2.703125q-4.578125 0 -7.8125 -2.171875zm39.757812 1.578125l0 -15.78125q0 -2.8125 -1.390625 -4.421875q-1.375 -1.625 -3.890625 -1.625q-1.609375 0 -3.25 0.953125q-1.625 0.953125 -2.484375 2.21875l0 18.65625l-4.453125 0l0 -35.390625l4.453125 0l0 13.046875q0.890625 -1.375 2.859375 -2.296875q1.984375 -0.9375 4.09375 -0.9375q3.984375 0 6.25 2.625q2.265625 2.625 2.265625 7.171875l0 15.78125l-4.453125 0zm31.898438 -12.125l-18.09375 0q0 4.40625 2.40625 6.78125q2.140625 2.0625 5.484375 2.0625q3.828125 0 6.375 -2.234375l1.875 3.21875q-1.03125 1.03125 -3.15625 1.78125q-2.671875 0.984375 -5.953125 0.984375q-4.734375 0 -8.046875 -3.21875q-3.671875 -3.53125 -3.671875 -9.515625q0 -6.203125 3.765625 -9.953125q3.375 -3.359375 8.0 -3.359375q5.359375 0 8.40625 3.03125q2.953125 2.90625 2.953125 7.703125q0 1.484375 -0.34375 2.71875zm-10.8125 -9.703125q-2.96875 0 -4.984375 1.921875q-1.921875 1.828125 -2.1875 4.546875l13.90625 0q0 -2.6875 -1.6875 -4.5q-1.859375 -1.96875 -5.046875 -1.96875zm17.445312 0.234375l-2.90625 0l0 -3.515625l2.90625 0l0 -5.25l4.453125 -1.703125l0 6.953125l6.890625 0l0 3.515625l-6.890625 0l0 12.46875q0 3.171875 1.0625 4.515625q1.0625 1.328125 3.4375 1.328125q1.703125 0 3.53125 -0.875l0.65625 3.921875q-2.765625 0.703125 -6.0625 0.703125q-2.984375 0 -5.03125 -2.21875q-2.046875 -2.21875 -2.046875 -5.59375l0 -14.25zm17.78125 14.484375l0 -28.28125l4.453125 0l0 27.53125q0 2.015625 1.15625 3.1875q1.171875 1.15625 3.046875 1.15625l0 3.984375q-8.65625 0 -8.65625 -7.578125zm27.984375 4.21875q-2.671875 3.359375 -8.171875 3.359375q-2.953125 0 -5.125 -2.140625q-2.171875 -2.15625 -2.171875 -5.34375q0 -3.8125 3.34375 -6.453125q3.34375 -2.640625 8.515625 -2.640625q1.40625 0 3.1875 0.609375q0 -6.09375 -5.4375 -6.09375q-4.171875 0 -6.421875 2.25l-1.875 -3.71875q1.265625 -1.03125 3.5 -1.765625q2.25 -0.75 4.28125 -0.75q5.46875 0 7.9375 2.484375q2.46875 2.484375 2.46875 7.90625l0 9.0q0 3.296875 1.96875 4.40625l0 2.234375q-2.71875 0 -4.0625 -0.78125q-1.34375 -0.78125 -1.9375 -2.5625zm-0.421875 -9.4375q-2.109375 -0.46875 -2.953125 -0.46875q-3.375 0 -5.515625 1.734375q-2.125 1.734375 -2.125 4.09375q0 3.921875 4.625 3.921875q3.375 0 5.96875 -3.21875l0 -6.0625zm26.90625 12.328125l0 -14.609375q0 -4.0 -1.203125 -5.609375q-1.203125 -1.609375 -4.046875 -1.609375q-1.515625 0 -3.1875 0.921875q-1.65625 0.90625 -2.546875 2.25l0 18.65625l-4.453125 0l0 -25.109375l3.046875 0l1.40625 3.234375q2.203125 -3.703125 7.1875 -3.703125q8.25 0 8.25 10.03125l0 15.546875l-4.453125 0zm26.695312 -0.03125l0 -1.84375q-2.3125 2.328125 -6.75 2.328125q-4.703125 0 -7.640625 -3.375q-2.921875 -3.390625 -2.921875 -9.015625q0 -5.640625 3.375 -9.640625q3.375 -4.0 8.03125 -4.0q3.890625 0 5.90625 1.828125l0 -11.640625l4.453125 0l0 35.359375l-4.453125 0zm0 -19.265625q-1.6875 -2.53125 -4.609375 -2.53125q-3.59375 0 -5.8125 2.671875q-2.203125 2.671875 -2.203125 6.796875q0 9.078125 8.25 9.078125q1.046875 0 2.515625 -0.671875q1.484375 -0.671875 1.859375 -1.421875l0 -13.921875z" fill-rule="nonzero"></path><path fill="#66c5e4" d="m198.03027 1271.8748l315.39978 0l0 230.8103l-315.39978 0z" fill-rule="nonzero"></path><path stroke="#ffffff" stroke-width="3.0" stroke-linejoin="round" stroke-linecap="butt" d="m198.03027 1271.8748l315.39978 0l0 230.8103l-315.39978 0z" fill-rule="nonzero"></path><path fill="#626250" d="m303.42938 1374.235l0 9.546875l12.078125 0l0 3.984375l-12.078125 0l0 16.59375l-4.6875 0l0 -34.34375l21.21875 0l0 4.21875l-16.53125 0zm34.335938 27.234375q-2.671875 3.359375 -8.171875 3.359375q-2.953125 0 -5.125 -2.140625q-2.171875 -2.15625 -2.171875 -5.34375q0 -3.8125 3.34375 -6.453125q3.34375 -2.640625 8.515625 -2.640625q1.40625 0 3.1875 0.609375q0 -6.09375 -5.4375 -6.09375q-4.171875 0 -6.421875 2.25l-1.875 -3.71875q1.265625 -1.03125 3.5 -1.765625q2.25 -0.75 4.28125 -0.75q5.46875 0 7.9375 2.484375q2.46875 2.484375 2.46875 7.90625l0 9.0q0 3.296875 1.96875 4.40625l0 2.234375q-2.71875 0 -4.0625 -0.78125q-1.34375 -0.78125 -1.9375 -2.5625zm-0.421875 -9.4375q-2.109375 -0.46875 -2.953125 -0.46875q-3.375 0 -5.515625 1.734375q-2.125 1.734375 -2.125 4.09375q0 3.921875 4.625 3.921875q3.375 0 5.96875 -3.21875l0 -6.0625zm25.109375 -8.484375q-1.453125 -1.015625 -2.9375 -1.015625q-2.359375 0 -4.140625 2.1875q-1.765625 2.171875 -1.765625 5.25l0 14.390625l-4.453125 0l0 -25.109375l4.453125 0l0 4.015625q2.4375 -4.484375 7.25 -4.484375q1.1875 0 3.4375 0.421875l-1.84375 4.34375zm3.375 8.203125q0 -5.8125 3.125 -9.390625q3.125 -3.578125 8.234375 -3.578125q5.390625 0 8.359375 3.4375q2.984375 3.4375 2.984375 9.53125q0 6.0625 -3.046875 9.578125q-3.046875 3.5 -8.296875 3.5q-5.359375 0 -8.359375 -3.53125q-3.0 -3.546875 -3.0 -9.546875zm4.6875 0q0 9.4375 6.671875 9.4375q3.125 0 4.890625 -2.53125q1.765625 -2.53125 1.765625 -6.90625q0 -9.328125 -6.65625 -9.328125q-3.046875 0 -4.859375 2.484375q-1.8125 2.484375 -1.8125 6.84375zm43.851562 0.484375l-18.09375 0q0 4.40625 2.40625 6.78125q2.140625 2.0625 5.484375 2.0625q3.828125 0 6.375 -2.234375l1.875 3.21875q-1.03125 1.03125 -3.15625 1.78125q-2.671875 0.984375 -5.953125 0.984375q-4.734375 0 -8.046875 -3.21875q-3.671875 -3.53125 -3.671875 -9.515625q0 -6.203125 3.765625 -9.953125q3.375 -3.359375 8.0 -3.359375q5.359375 0 8.40625 3.03125q2.953125 2.90625 2.953125 7.703125q0 1.484375 -0.34375 2.71875zm-10.8125 -9.703125q-2.96875 0 -4.984375 1.921875q-1.921875 1.828125 -2.1875 4.546875l13.90625 0q0 -2.6875 -1.6875 -4.5q-1.859375 -1.96875 -5.046875 -1.96875z" fill-rule="nonzero"></path><path fill="#66c5e4" d="m712.5783 548.33124l315.39984 0l0 230.81024l-315.39984 0z" fill-rule="nonzero"></path><path stroke="#ffffff" stroke-width="3.0" stroke-linejoin="round" stroke-linecap="butt" d="m712.5783 548.33124l315.39984 0l0 230.81024l-315.39984 0z" fill-rule="nonzero"></path><path fill="#626250" d="m796.7977 680.8164l0 -34.34375l4.6875 0l0 34.34375l-4.6875 0zm31.125 -23.0625l-2.203125 3.140625q-0.6875 -0.6875 -2.40625 -1.296875q-1.71875 -0.609375 -3.390625 -0.609375q-3.625 0 -5.765625 2.546875q-2.125 2.546875 -2.125 6.96875q0 4.40625 2.171875 6.71875q2.1875 2.3125 6.046875 2.3125q3.0 0 6.046875 -2.328125l1.765625 3.75q-3.59375 2.328125 -8.890625 2.328125q-5.125 0 -8.484375 -3.4375q-3.34375 -3.453125 -3.34375 -9.34375q0 -6.0 3.46875 -9.625q3.484375 -3.640625 9.53125 -3.640625q1.953125 0 4.21875 0.828125q2.28125 0.8125 3.359375 1.6875zm25.96875 10.9375l-18.09375 0q0 4.40625 2.40625 6.78125q2.140625 2.0625 5.484375 2.0625q3.828125 0 6.375 -2.234375l1.875 3.21875q-1.03125 1.03125 -3.15625 1.78125q-2.671875 0.984375 -5.953125 0.984375q-4.734375 0 -8.046875 -3.21875q-3.671875 -3.53125 -3.671875 -9.515625q0 -6.203125 3.765625 -9.953125q3.375 -3.359375 8.0 -3.359375q5.359375 0 8.40625 3.03125q2.953125 2.90625 2.953125 7.703125q0 1.484375 -0.34375 2.71875zm-10.8125 -9.703125q-2.96875 0 -4.984375 1.921875q-1.921875 1.828125 -2.1875 4.546875l13.90625 0q0 -2.6875 -1.6875 -4.5q-1.859375 -1.96875 -5.046875 -1.96875zm16.195312 14.71875l0 -28.28125l4.453125 0l0 27.53125q0 2.015625 1.15625 3.1875q1.171875 1.15625 3.046875 1.15625l0 3.984375q-8.65625 0 -8.65625 -7.578125zm27.984375 4.21875q-2.671875 3.359375 -8.171875 3.359375q-2.953125 0 -5.125 -2.140625q-2.171875 -2.15625 -2.171875 -5.34375q0 -3.8125 3.34375 -6.453125q3.34375 -2.640625 8.515625 -2.640625q1.40625 0 3.1875 0.609375q0 -6.09375 -5.4375 -6.09375q-4.171875 0 -6.421875 2.25l-1.875 -3.71875q1.265625 -1.03125 3.5 -1.765625q2.25 -0.75 4.28125 -0.75q5.46875 0 7.9375 2.484375q2.46875 2.484375 2.46875 7.90625l0 9.0q0 3.296875 1.96875 4.40625l0 2.234375q-2.71875 0 -4.0625 -0.78125q-1.34375 -0.78125 -1.9375 -2.5625zm-0.421875 -9.4375q-2.109375 -0.46875 -2.953125 -0.46875q-3.375 0 -5.515625 1.734375q-2.125 1.734375 -2.125 4.09375q0 3.921875 4.625 3.921875q3.375 0 5.96875 -3.21875l0 -6.0625zm26.90625 12.328125l0 -14.609375q0 -4.0 -1.203125 -5.609375q-1.203125 -1.609375 -4.046875 -1.609375q-1.515625 0 -3.1875 0.921875q-1.65625 0.90625 -2.546875 2.25l0 18.65625l-4.453125 0l0 -25.109375l3.046875 0l1.40625 3.234375q2.203125 -3.703125 7.1875 -3.703125q8.25 0 8.25 10.03125l0 15.546875l-4.453125 0zm26.695312 -0.03125l0 -1.84375q-2.3125 2.328125 -6.75 2.328125q-4.703125 0 -7.640625 -3.375q-2.921875 -3.390625 -2.921875 -9.015625q0 -5.640625 3.375 -9.640625q3.375 -4.0 8.03125 -4.0q3.890625 0 5.90625 1.828125l0 -11.640625l4.453125 0l0 35.359375l-4.453125 0zm0 -19.265625q-1.6875 -2.53125 -4.609375 -2.53125q-3.59375 0 -5.8125 2.671875q-2.203125 2.671875 -2.203125 6.796875q0 9.078125 8.25 9.078125q1.046875 0 2.515625 -0.671875q1.484375 -0.671875 1.859375 -1.421875l0 -13.921875z" fill-rule="nonzero"></path><path fill="#66c5e4" d="m712.5783 1743.1965l315.39984 0l0 230.81018l-315.39984 0z" fill-rule="nonzero"></path><path stroke="#ffffff" stroke-width="3.0" stroke-linejoin="round" stroke-linecap="butt" d="m712.5783 1743.1965l315.39984 0l0 230.81018l-315.39984 0z" fill-rule="nonzero"></path><path fill="#626250" d="m759.36804 1868.8066l4.09375 0q0.5625 3.125 3.734375 3.125q3.140625 0 4.40625 -1.34375q1.28125 -1.359375 1.28125 -7.546875l0 -21.703125l4.6875 0l0 21.515625q0 7.03125 -2.28125 10.171875q-2.265625 3.125 -8.078125 3.125q-3.34375 0 -5.5 -1.984375q-2.140625 -2.0 -2.34375 -5.359375zm39.0625 3.984375q-2.671875 3.359375 -8.171875 3.359375q-2.953125 0 -5.125 -2.140625q-2.171875 -2.15625 -2.171875 -5.34375q0 -3.8125 3.34375 -6.453125q3.34375 -2.640625 8.515625 -2.640625q1.40625 0 3.1875 0.609375q0 -6.09375 -5.4375 -6.09375q-4.171875 0 -6.421875 2.25l-1.875 -3.71875q1.265625 -1.03125 3.5 -1.765625q2.25 -0.75 4.28125 -0.75q5.46875 0 7.9375 2.484375q2.46875 2.484375 2.46875 7.90625l0 9.0q0 3.296875 1.96875 4.40625l0 2.234375q-2.71875 0 -4.0625 -0.78125q-1.34375 -0.78125 -1.9375 -2.5625zm-0.421875 -9.4375q-2.109375 -0.46875 -2.953125 -0.46875q-3.375 0 -5.515625 1.734375q-2.125 1.734375 -2.125 4.09375q0 3.921875 4.625 3.921875q3.375 0 5.96875 -3.21875l0 -6.0625zm26.90625 12.328125l0 -14.609375q0 -4.0 -1.203125 -5.609375q-1.203125 -1.609375 -4.046875 -1.609375q-1.515625 0 -3.1875 0.921875q-1.65625 0.90625 -2.546875 2.25l0 18.65625l-4.453125 0l0 -25.109375l3.046875 0l1.40625 3.234375q2.203125 -3.703125 7.1875 -3.703125q8.25 0 8.25 10.03125l0 15.546875l-4.453125 0zm51.453125 0l-4.078125 -22.0625l-7.5 22.53125l-1.171875 0l-7.71875 -22.53125l-3.984375 22.0625l-4.453125 0l6.421875 -34.34375l2.140625 0l8.171875 25.0625l7.546875 -25.0625l2.109375 0l6.96875 34.34375l-4.453125 0zm22.023438 -2.890625q-2.671875 3.359375 -8.171875 3.359375q-2.953125 0 -5.125 -2.140625q-2.171875 -2.15625 -2.171875 -5.34375q0 -3.8125 3.34375 -6.453125q3.34375 -2.640625 8.515625 -2.640625q1.40625 0 3.1875 0.609375q0 -6.09375 -5.4375 -6.09375q-4.171875 0 -6.421875 2.25l-1.875 -3.71875q1.265625 -1.03125 3.5 -1.765625q2.25 -0.75 4.28125 -0.75q5.46875 0 7.9375 2.484375q2.46875 2.484375 2.46875 7.90625l0 9.0q0 3.296875 1.96875 4.40625l0 2.234375q-2.71875 0 -4.0625 -0.78125q-1.34375 -0.78125 -1.9375 -2.5625zm-0.421875 -9.4375q-2.109375 -0.46875 -2.953125 -0.46875q-3.375 0 -5.515625 1.734375q-2.125 1.734375 -2.125 4.09375q0 3.921875 4.625 3.921875q3.375 0 5.96875 -3.21875l0 -6.0625zm21.046875 16.59375q-0.859375 2.390625 -3.640625 3.984375q-2.78125 1.59375 -6.203125 1.59375l0 -3.984375q2.796875 0 4.78125 -1.296875q2.0 -1.296875 2.0 -3.171875q0 -2.078125 -0.734375 -4.078125q-0.71875 -2.0 -1.875 -4.953125l-6.796875 -17.46875l4.546875 0l7.390625 19.40625l6.625 -19.40625l4.546875 0l-10.640625 29.375zm35.234375 -16.390625l-18.09375 0q0 4.40625 2.40625 6.78125q2.140625 2.0625 5.484375 2.0625q3.828125 0 6.375 -2.234375l1.875 3.21875q-1.03125 1.03125 -3.15625 1.78125q-2.671875 0.984375 -5.953125 0.984375q-4.734375 0 -8.046875 -3.21875q-3.671875 -3.53125 -3.671875 -9.515625q0 -6.203125 3.765625 -9.953125q3.375 -3.359375 8.0 -3.359375q5.359375 0 8.40625 3.03125q2.953125 2.90625 2.953125 7.703125q0 1.484375 -0.34375 2.71875zm-10.8125 -9.703125q-2.96875 0 -4.984375 1.921875q-1.921875 1.828125 -2.1875 4.546875l13.90625 0q0 -2.6875 -1.6875 -4.5q-1.859375 -1.96875 -5.046875 -1.96875zm31.289062 21.828125l0 -14.609375q0 -4.0 -1.203125 -5.609375q-1.203125 -1.609375 -4.046875 -1.609375q-1.515625 0 -3.1875 0.921875q-1.65625 0.90625 -2.546875 2.25l0 18.65625l-4.453125 0l0 -25.109375l3.046875 0l1.40625 3.234375q2.203125 -3.703125 7.1875 -3.703125q8.25 0 8.25 10.03125l0 15.546875l-4.453125 0z" fill-rule="nonzero"></path><path fill="#000000" fill-opacity="0.0" d="m870.2739 1387.2843l0 355.90552" fill-rule="nonzero"></path><path stroke="#ffffff" stroke-width="3.0" stroke-linejoin="round" stroke-linecap="butt" d="m870.2739 1387.2843l0 337.90552" fill-rule="evenodd"></path><path fill="#ffffff" stroke="#ffffff" stroke-width="3.0" stroke-linecap="butt" d="m865.3187 1725.1898l4.9552 13.614258l4.9552 -13.614258z" fill-rule="evenodd"></path><path fill="#000000" fill-opacity="0.0" d="m1384.8263 1502.6807l-514.5512 240.5039" fill-rule="nonzero"></path><path stroke="#ffffff" stroke-width="3.0" stroke-linejoin="round" stroke-linecap="butt" d="m1384.8263 1502.6807l-498.2445 232.88196" fill-rule="evenodd"></path><path fill="#ffffff" stroke="#ffffff" stroke-width="3.0" stroke-linecap="butt" d="m884.4836 1731.0737l-10.235352 10.253784l14.431763 -1.2757568z" fill-rule="evenodd"></path><path fill="#000000" fill-opacity="0.0" d="m355.73016 1502.685l514.55115 240.5039" fill-rule="nonzero"></path><path stroke="#ffffff" stroke-width="3.0" stroke-linejoin="round" stroke-linecap="butt" d="m355.73016 1502.685l498.2445 232.88208" fill-rule="evenodd"></path><path fill="#ffffff" stroke="#ffffff" stroke-width="3.0" stroke-linecap="butt" d="m851.87646 1740.0562l14.431763 1.2757568l-10.235352 -10.253784z" fill-rule="evenodd"></path><path fill="#66c5e4" d="m969.8266 77.01844l315.39972 0l0 230.81024l-315.39972 0z" fill-rule="nonzero"></path><path stroke="#626250" stroke-width="3.0" stroke-linejoin="round" stroke-linecap="butt" d="m969.8266 77.01844l315.39972 0l0 230.81024l-315.39972 0z" fill-rule="nonzero"></path><path fill="#626250" d="m1066.8585 174.9098q1.15625 0 1.953125 0.8125q0.8125 0.796875 0.8125 1.921875q0 1.15625 -0.8125 1.96875q-0.796875 0.796875 -1.953125 0.796875q-1.140625 0 -1.9375 -0.796875q-0.796875 -0.8125 -0.796875 -1.96875q0 -1.140625 0.796875 -1.9375q0.796875 -0.796875 1.9375 -0.796875zm-9.609375 44.4375l0 -3.984375q4.59375 0 6.296875 -1.390625q1.703125 -1.390625 1.703125 -4.59375l0 -21.234375l-5.0 0l0 -3.75l9.453125 0l0 24.890625q0 5.1875 -3.046875 7.625q-3.046875 2.4375 -9.40625 2.4375zm34.523438 -12.734375q-2.671875 3.359375 -8.171875 3.359375q-2.953125 0 -5.125 -2.140625q-2.171875 -2.15625 -2.171875 -5.34375q0 -3.8125 3.34375 -6.453125q3.34375 -2.640625 8.515625 -2.640625q1.40625 0 3.1875 0.609375q0 -6.09375 -5.4375 -6.09375q-4.171875 0 -6.421875 2.25l-1.875 -3.71875q1.265625 -1.03125 3.5 -1.765625q2.25 -0.75 4.28125 -0.75q5.46875 0 7.9375 2.484375q2.46875 2.484375 2.46875 7.90625l0 9.0q0 3.296875 1.96875 4.40625l0 2.234375q-2.71875 0 -4.0625 -0.78125q-1.34375 -0.78125 -1.9375 -2.5625zm-0.421875 -9.4375q-2.109375 -0.46875 -2.953125 -0.46875q-3.375 0 -5.515625 1.734375q-2.125 1.734375 -2.125 4.09375q0 3.921875 4.625 3.921875q3.375 0 5.96875 -3.21875l0 -6.0625zm20.515625 12.796875l-1.171875 0l-10.765625 -25.640625l4.875 0l6.640625 17.578125l6.765625 -17.578125l4.671875 0l-11.015625 25.640625zm28.632812 -3.359375q-2.671875 3.359375 -8.171875 3.359375q-2.953125 0 -5.125 -2.140625q-2.171875 -2.15625 -2.171875 -5.34375q0 -3.8125 3.34375 -6.453125q3.34375 -2.640625 8.515625 -2.640625q1.40625 0 3.1875 0.609375q0 -6.09375 -5.4375 -6.09375q-4.171875 0 -6.421875 2.25l-1.875 -3.71875q1.265625 -1.03125 3.5 -1.765625q2.25 -0.75 4.28125 -0.75q5.46875 0 7.9375 2.484375q2.46875 2.484375 2.46875 7.90625l0 9.0q0 3.296875 1.96875 4.40625l0 2.234375q-2.71875 0 -4.0625 -0.78125q-1.34375 -0.78125 -1.9375 -2.5625zm-0.421875 -9.4375q-2.109375 -0.46875 -2.953125 -0.46875q-3.375 0 -5.515625 1.734375q-2.125 1.734375 -2.125 4.09375q0 3.921875 4.625 3.921875q3.375 0 5.96875 -3.21875l0 -6.0625zm16.5 -0.890625l0 13.21875l-4.6875 0l0 -34.34375q5.328125 -0.234375 6.421875 -0.234375q14.953125 0 14.953125 10.015625q0 11.578125 -13.21875 11.578125q-0.796875 0 -3.46875 -0.234375zm0 -16.90625l0 12.6875q2.984375 0.234375 3.140625 0.234375q8.71875 0 8.71875 -6.875q0 -6.28125 -9.296875 -6.28125q-0.9375 0 -2.5625 0.234375zm20.53125 28.546875l1.71875 -4.3125q1.3125 0.96875 3.265625 1.609375q1.953125 0.640625 3.5 0.640625q2.75 0 4.40625 -1.5q1.671875 -1.5 1.671875 -3.8125q0 -1.734375 -0.9375 -3.21875q-0.921875 -1.5 -4.640625 -3.25l-2.765625 -1.296875q-3.515625 -1.640625 -4.921875 -3.890625q-1.390625 -2.25 -1.390625 -5.40625q0 -3.84375 2.71875 -6.375q2.71875 -2.53125 6.984375 -2.53125q5.703125 0 7.921875 1.84375l-1.375 4.078125q-0.9375 -0.671875 -2.859375 -1.296875q-1.921875 -0.640625 -3.5625 -0.640625q-2.390625 0 -3.765625 1.359375q-1.375 1.359375 -1.375 3.484375q0 1.3125 0.484375 2.390625q0.5 1.078125 1.375 1.8125q0.890625 0.71875 3.609375 2.03125l2.8125 1.34375q3.515625 1.65625 4.921875 3.96875q1.421875 2.3125 1.421875 5.875q0 3.859375 -3.109375 6.5625q-3.09375 2.703125 -8.296875 2.703125q-4.578125 0 -7.8125 -2.171875z" fill-rule="nonzero"></path><path fill="#66c5e4" d="m455.27853 77.01844l315.39975 0l0 230.81024l-315.39975 0z" fill-rule="nonzero"></path><path stroke="#626250" stroke-width="3.0" stroke-linejoin="round" stroke-linecap="butt" d="m455.27853 77.01844l315.39975 0l0 230.81024l-315.39975 0z" fill-rule="nonzero"></path><path fill="#626250" d="m575.68933 207.92543l1.71875 -4.3125q1.3125 0.96875 3.265625 1.609375q1.953125 0.640625 3.5 0.640625q2.75 0 4.40625 -1.5q1.671875 -1.5 1.671875 -3.8125q0 -1.734375 -0.9375 -3.21875q-0.921875 -1.5 -4.640625 -3.25l-2.765625 -1.296875q-3.515625 -1.640625 -4.921875 -3.890625q-1.390625 -2.25 -1.390625 -5.40625q0 -3.84375 2.71875 -6.375q2.71875 -2.53125 6.984375 -2.53125q5.703125 0 7.921875 1.84375l-1.375 4.078125q-0.9375 -0.671875 -2.859375 -1.296875q-1.921875 -0.640625 -3.5625 -0.640625q-2.390625 0 -3.765625 1.359375q-1.375 1.359375 -1.375 3.484375q0 1.3125 0.484375 2.390625q0.5 1.078125 1.375 1.8125q0.890625 0.71875 3.609375 2.03125l2.8125 1.34375q3.515625 1.65625 4.921875 3.96875q1.421875 2.3125 1.421875 5.875q0 3.859375 -3.109375 6.5625q-3.09375 2.703125 -8.296875 2.703125q-4.578125 0 -7.8125 -2.171875zm22.992188 -15.890625q0 -7.453125 3.734375 -12.46875q3.75 -5.015625 10.09375 -5.015625q7.15625 0 10.953125 4.625q3.8125 4.609375 3.8125 12.859375q0 8.46875 -3.828125 13.265625q-3.8125 4.796875 -10.9375 4.796875q-6.484375 0 -10.15625 -5.0625q-3.671875 -5.078125 -3.671875 -13.0zm4.921875 0q0 5.90625 2.328125 9.875q2.34375 3.953125 6.578125 3.953125q4.8125 0 7.328125 -3.625q2.515625 -3.640625 2.515625 -10.203125q0 -13.265625 -9.84375 -13.265625q-4.359375 0 -6.640625 3.5625q-2.265625 3.5625 -2.265625 9.703125zm27.515625 15.890625l1.71875 -4.3125q1.3125 0.96875 3.265625 1.609375q1.953125 0.640625 3.5 0.640625q2.75 0 4.40625 -1.5q1.671875 -1.5 1.671875 -3.8125q0 -1.734375 -0.9375 -3.21875q-0.921875 -1.5 -4.640625 -3.25l-2.765625 -1.296875q-3.515625 -1.640625 -4.921875 -3.890625q-1.390625 -2.25 -1.390625 -5.40625q0 -3.84375 2.71875 -6.375q2.71875 -2.53125 6.984375 -2.53125q5.703125 0 7.921875 1.84375l-1.375 4.078125q-0.9375 -0.671875 -2.859375 -1.296875q-1.921875 -0.640625 -3.5625 -0.640625q-2.390625 0 -3.765625 1.359375q-1.375 1.359375 -1.375 3.484375q0 1.3125 0.484375 2.390625q0.5 1.078125 1.375 1.8125q0.890625 0.71875 3.609375 2.03125l2.8125 1.34375q3.515625 1.65625 4.921875 3.96875q1.421875 2.3125 1.421875 5.875q0 3.859375 -3.109375 6.5625q-3.09375 2.703125 -8.296875 2.703125q-4.578125 0 -7.8125 -2.171875z" fill-rule="nonzero"></path><path fill="#000000" fill-opacity="0.0" d="m1027.9738 1271.8793l199.14966 115.40149" fill-rule="nonzero"></path><path stroke="#ffffff" stroke-width="3.0" stroke-linejoin="round" stroke-linecap="butt" d="m1027.9739 1271.8793l183.57544 106.37683" fill-rule="evenodd"></path><path fill="#ffffff" stroke="#ffffff" stroke-width="3.0" stroke-linecap="butt" d="m1209.065 1382.5435l14.263916 2.5384521l-9.295166 -11.113281z" fill-rule="evenodd"></path><path fill="#000000" fill-opacity="0.0" d="m870.2782 779.1415l-514.55115 492.7245" fill-rule="nonzero"></path><path stroke="#ffffff" stroke-width="3.0" stroke-linejoin="round" stroke-linecap="butt" d="m870.2782 779.1415l-501.5505 480.27515" fill-rule="evenodd"></path><path fill="#ffffff" stroke="#ffffff" stroke-width="3.0" stroke-linecap="butt" d="m365.3006 1255.8378l-6.405945 12.994873l13.260162 -5.837036z" fill-rule="evenodd"></path><path fill="#000000" fill-opacity="0.0" d="m870.2782 779.1415l514.55115 492.7245" fill-rule="nonzero"></path><path stroke="#ffffff" stroke-width="3.0" stroke-linejoin="round" stroke-linecap="butt" d="m870.2782 779.1415l501.55054 480.27515" fill-rule="evenodd"></path><path fill="#ffffff" stroke="#ffffff" stroke-width="3.0" stroke-linecap="butt" d="m1368.4016 1262.9956l13.260132 5.837036l-6.405884 -12.994873z" fill-rule="evenodd"></path><path fill="#000000" fill-opacity="0.0" d="m870.2782 779.1415l0 377.32288" fill-rule="nonzero"></path><path stroke="#ffffff" stroke-width="3.0" stroke-linejoin="round" stroke-linecap="butt" d="m870.2782 779.1415l0 359.32288" fill-rule="evenodd"></path><path fill="#ffffff" stroke="#ffffff" stroke-width="3.0" stroke-linecap="butt" d="m865.323 1138.4644l4.9552 13.614258l4.9552 -13.614258z" fill-rule="evenodd"></path><path fill="#000000" fill-opacity="0.0" d="m712.57404 1271.8793l-199.1496 115.40149" fill-rule="nonzero"></path><path stroke="#ffffff" stroke-width="3.0" stroke-linejoin="round" stroke-linecap="butt" d="m712.57404 1271.8793l-183.5755 106.37683" fill-rule="evenodd"></path><path fill="#ffffff" stroke="#ffffff" stroke-width="3.0" stroke-linecap="butt" d="m526.51416 1373.9688l-9.295105 11.113159l14.263916 -2.5384521z" fill-rule="evenodd"></path><path fill="#000000" fill-opacity="0.0" d="m612.9784 307.82867l257.29138 192.28348" fill-rule="nonzero"></path><path stroke="#626250" stroke-width="3.0" stroke-linejoin="round" stroke-linecap="butt" d="m612.97845 307.82867l242.87292 181.50806" fill-rule="evenodd"></path><path fill="#626250" stroke="#626250" stroke-width="3.0" stroke-linecap="butt" d="m852.885 493.30597l13.871704 4.1807556l-7.939026 -12.119202z" fill-rule="evenodd"></path><path fill="#000000" fill-opacity="0.0" d="m1127.5265 307.82867l-257.2599 192.28348" fill-rule="nonzero"></path><path stroke="#626250" stroke-width="3.0" stroke-linejoin="round" stroke-linecap="butt" d="m1127.5265 307.82867l-242.8421 181.50723" fill-rule="evenodd"></path><path fill="#626250" stroke="#626250" stroke-width="3.0" stroke-linecap="butt" d="m881.71783 485.36685l-7.9382935 12.119659l13.87146 -4.181549z" fill-rule="evenodd"></path><path fill="#000000" fill-opacity="0.0" d="m217.54068 598.5066l327.52756 0l0 103.968445l-327.52756 0z" fill-rule="nonzero"></path><path fill="#66c5e4" d="m264.90005 684.3066l-3.9375 -12.078125l-21.296875 0l-4.21875 12.078125l-8.75 0l23.25 -58.015625l2.0625 0l21.5625 58.015625l-8.671875 0zm-14.296875 -43.015625l-8.859375 25.203125l16.984375 0l-8.125 -25.203125zm51.140625 8.328125q-2.421875 -1.6875 -4.890625 -1.6875q-3.9375 0 -6.890625 3.640625q-2.953125 3.625 -2.953125 8.75l0 23.984375l-7.421875 0l0 -41.84375l7.421875 0l0 6.6875q4.0625 -7.46875 12.078125 -7.46875q1.984375 0 5.734375 0.703125l-3.078125 7.234375zm39.921875 -3.75l-3.671875 5.234375q-1.140625 -1.140625 -4.015625 -2.15625q-2.859375 -1.015625 -5.640625 -1.015625q-6.046875 0 -9.609375 4.25q-3.546875 4.234375 -3.546875 11.609375q0 7.34375 3.625 11.203125q3.640625 3.84375 10.078125 3.84375q5.0 0 10.078125 -3.875l2.9375 6.25q-5.984375 3.875 -14.8125 3.875q-8.546875 0 -14.140625 -5.734375q-5.578125 -5.75 -5.578125 -15.5625q0 -10.0 5.796875 -16.046875q5.796875 -6.0625 15.875 -6.0625q3.25 0 7.03125 1.375q3.796875 1.359375 5.59375 2.8125zm10.703125 2.453125l-4.84375 0l0 -5.859375l4.84375 0l0 -8.75l7.421875 -2.84375l0 11.59375l11.484375 0l0 5.859375l-11.484375 0l0 20.78125q0 5.28125 1.765625 7.515625q1.78125 2.21875 5.734375 2.21875q2.84375 0 5.890625 -1.453125l1.09375 6.53125q-4.609375 1.171875 -10.109375 1.171875q-4.96875 0 -8.390625 -3.6875q-3.40625 -3.703125 -3.40625 -9.328125l0 -23.75zm36.71875 -21.671875q1.90625 0 3.25 1.34375q1.359375 1.34375 1.359375 3.21875q0 1.921875 -1.359375 3.265625q-1.34375 1.34375 -3.25 1.34375q-1.875 0 -3.234375 -1.34375q-1.34375 -1.34375 -1.34375 -3.265625q0 -1.90625 1.328125 -3.234375q1.328125 -1.328125 3.25 -1.328125zm-4.0625 57.65625l0 -35.59375l-5.75 0l0 -6.25l13.171875 0l0 41.84375l-7.421875 0zm50.78125 -38.4375l-3.671875 5.234375q-1.140625 -1.140625 -4.015625 -2.15625q-2.859375 -1.015625 -5.640625 -1.015625q-6.046875 0 -9.609375 4.25q-3.546875 4.234375 -3.546875 11.609375q0 7.34375 3.625 11.203125q3.640625 3.84375 10.078125 3.84375q5.0 0 10.078125 -3.875l2.9375 6.25q-5.984375 3.875 -14.8125 3.875q-8.546875 0 -14.140625 -5.734375q-5.578125 -5.75 -5.578125 -15.5625q0 -10.0 5.796875 -16.046875q5.796875 -6.0625 15.875 -6.0625q3.25 0 7.03125 1.375q3.796875 1.359375 5.59375 2.8125z" fill-rule="nonzero"></path><path fill="#66c5e4" d="m229.82193 777.6816l2.859375 -7.1875q2.1875 1.609375 5.4375 2.6875q3.265625 1.0625 5.84375 1.0625q4.578125 0 7.34375 -2.5q2.78125 -2.5 2.78125 -6.359375q0 -2.890625 -1.546875 -5.375q-1.546875 -2.484375 -7.75 -5.40625l-4.609375 -2.15625q-5.859375 -2.734375 -8.1875 -6.484375q-2.328125 -3.75 -2.328125 -9.015625q0 -6.40625 4.53125 -10.625q4.53125 -4.21875 11.640625 -4.21875q9.5 0 13.203125 3.078125l-2.296875 6.796875q-1.5625 -1.125 -4.765625 -2.171875q-3.203125 -1.0625 -5.9375 -1.0625q-3.984375 0 -6.28125 2.265625q-2.28125 2.265625 -2.28125 5.8125q0 2.1875 0.8125 3.984375q0.828125 1.796875 2.296875 3.015625q1.46875 1.203125 6.0 3.390625l4.6875 2.234375q5.859375 2.765625 8.21875 6.625q2.359375 3.84375 2.359375 9.78125q0 6.4375 -5.171875 10.9375q-5.171875 4.5 -13.84375 4.5q-7.625 0 -13.015625 -3.609375zm75.71094 -17.578125l-30.15625 0q0 7.34375 4.015625 11.296875q3.5625 3.4375 9.140625 3.4375q6.375 0 10.625 -3.71875l3.125 5.359375q-1.71875 1.71875 -5.265625 2.96875q-4.453125 1.640625 -9.921875 1.640625q-7.890625 0 -13.40625 -5.359375q-6.125 -5.890625 -6.125 -15.859375q0 -10.34375 6.28125 -16.59375q5.625 -5.59375 13.328125 -5.59375q8.9375 0 14.015625 5.046875q4.921875 4.84375 4.921875 12.84375q0 2.46875 -0.578125 4.53125zm-18.015625 -16.171875q-4.953125 0 -8.3125 3.203125q-3.203125 3.046875 -3.640625 7.578125l23.171875 0q0 -4.484375 -2.8125 -7.5q-3.09375 -3.28125 -8.40625 -3.28125zm50.039062 31.5625q-4.453125 5.59375 -13.625 5.59375q-4.921875 0 -8.546875 -3.578125q-3.609375 -3.578125 -3.609375 -8.890625q0 -6.359375 5.5625 -10.75q5.578125 -4.40625 14.203125 -4.40625q2.34375 0 5.3125 1.015625q0 -10.15625 -9.0625 -10.15625q-6.953125 0 -10.703125 3.75l-3.125 -6.203125q2.109375 -1.71875 5.84375 -2.953125q3.734375 -1.234375 7.125 -1.234375q9.109375 0 13.21875 4.140625q4.125 4.140625 4.125 13.171875l0 15.0q0 5.5 3.28125 7.34375l0 3.71875q-4.53125 0 -6.78125 -1.296875q-2.234375 -1.296875 -3.21875 -4.265625zm-0.703125 -15.734375q-3.515625 -0.78125 -4.921875 -0.78125q-5.625 0 -9.1875 2.890625q-3.546875 2.890625 -3.546875 6.828125q0 6.53125 7.703125 6.53125q5.625 0 9.953125 -5.359375l0 -10.109375z" fill-rule="nonzero"></path></g></svg>

